<?xml version="1.0" encoding="UTF-8" standalone="no"?>
<svg
   width="24"
   height="24"
   viewBox="0 0 24 24"
   stroke-width="1.5"
   fill="none"
   color="#000000"
   version="1.1"
   id="svg48"
   sodipodi:docname="godot_file_auto_open.svg"
   inkscape:version="1.2.2 (b0a8486541, 2022-12-01)"
   xmlns:inkscape="http://www.inkscape.org/namespaces/inkscape"
   xmlns:sodipodi="http://sodipodi.sourceforge.net/DTD/sodipodi-0.dtd"
   xmlns="http://www.w3.org/2000/svg"
   xmlns:svg="http://www.w3.org/2000/svg">
  <defs
     id="defs52" />
  <sodipodi:namedview
     id="namedview50"
     pagecolor="#ffffff"
     bordercolor="#000000"
     borderopacity="0.25"
     inkscape:showpageshadow="2"
     inkscape:pageopacity="0.0"
     inkscape:pagecheckerboard="0"
     inkscape:deskcolor="#d1d1d1"
     showgrid="false"
     inkscape:zoom="34.458333"
     inkscape:cx="8.5320435"
     inkscape:cy="12.029021"
     inkscape:window-width="1920"
     inkscape:window-height="1008"
     inkscape:window-x="0"
     inkscape:window-y="0"
     inkscape:window-maximized="1"
     inkscape:current-layer="svg48" />
  <path
     d="M 4,21.4 V 2.6 C 4,2.26863 4.26863,2 4.6,2 h 11.6515 c 0.1591,0 0.3117,0.06321 0.4242,0.17574 l 3.1486,3.14852 C 19.9368,5.43679 20,5.5894 20,5.74853 V 21.4 C 20,21.7314 19.7314,22 19.4,22 H 4.6 C 4.26863,22 4,21.7314 4,21.4 Z"
     stroke="#000000"
     stroke-width="1.5"
     stroke-linecap="round"
     stroke-linejoin="round"
     id="path44" />
  <path
     d="M 16,2 V 5.4 C 16,5.73137 16.2686,6 16.6,6 H 20"
     stroke="#000000"
     stroke-width="1.5"
     stroke-linecap="round"
     stroke-linejoin="round"
     id="path46" />
  <path
     d="m 17.341428,14.788447 c 0,0 -0.01749,-0.113814 -0.02772,-0.112786 l -1.947564,0.199262 c -0.154968,0.01587 -0.275324,0.146922 -0.286198,0.311594 l -0.05351,0.813206 -1.506723,0.113987 -0.102486,-0.737006 c -0.02283,-0.163931 -0.15782,-0.287507 -0.31408,-0.287507 h -2.055541 c -0.156206,0 -0.291203,0.123576 -0.314026,0.287507 L 10.63104,16.11371 9.124318,15.999723 9.070808,15.186517 C 9.059938,15.021788 8.939578,14.890733 8.78461,14.874865 L 6.836085,14.675661 c -0.01007,-0.0011 -0.01744,0.112901 -0.02751,0.112901 l -0.0027,0.446929 1.650224,0.282199 0.05404,0.820455 c 0.01093,0.1661 0.137312,0.300406 0.294056,0.312336 l 2.07508,0.156969 c 0.0079,5.21e-4 0.01561,0.0011 0.02336,0.0011 0.155937,0 0.290719,-0.123634 0.313542,-0.287565 l 0.105446,-0.758353 h 1.507422 l 0.105447,0.758353 c 0.02277,0.163874 0.157713,0.287507 0.313865,0.287507 0.0076,0 0.01529,-2.6e-4 0.02277,-8e-4 l 2.075349,-0.156968 c 0.15669,-0.01193 0.28313,-0.146237 0.294056,-0.312336 l 0.05399,-0.820455 1.649526,-0.283455 z"
     fill="#ffffff"
     id="path369"
     style="stroke-width:0.0554295" />
  <path
     d="m 6.808558,11.418441 v 2.712054 0.344474 0.313478 c 0.0058,5.5e-5 0.01163,2.61e-4 0.01739,8e-4 l 1.948318,0.199205 c 0.102056,0.01044 0.182043,0.09755 0.189148,0.205999 l 0.06007,0.912009 1.69953,0.128599 0.117073,-0.841744 c 0.01518,-0.109136 0.103456,-0.190018 0.207556,-0.190018 h 2.055541 c 0.104047,0 0.192323,0.08088 0.207503,0.190018 l 0.117073,0.841744 1.699584,-0.128599 0.06002,-0.912009 c 0.0072,-0.108452 0.08709,-0.195496 0.189147,-0.205999 l 1.947566,-0.199205 c 0.0057,-5.22e-4 0.01153,-8e-4 0.01734,-8e-4 v -0.2689 l 7.33e-4,-2.6e-4 v -3.100846 c 0.27436,-0.366246 0.534144,-0.770236 0.733185,-1.11013 -0.304176,-0.5490995 -0.676873,-1.0398085 -1.075247,-1.4944435 -0.369467,0.197208 -0.72833,0.420616 -1.067278,0.65835 -0.169609,-0.178772 -0.360641,-0.325008 -0.548282,-0.477866 -0.18435,-0.157024 -0.392122,-0.272152 -0.589182,-0.406288 0.05867,-0.463311 0.08768,-0.91943 0.09936,-1.395469 -0.508444,-0.271354 -1.050643,-0.451267 -1.599084,-0.580494 -0.218968,0.390249 -0.419204,0.812863 -0.593604,1.226001 -0.206802,-0.03665 -0.414574,-0.05023 -0.622615,-0.05285 v -3.38e-4 c -0.0015,0 -0.0028,3.38e-4 -0.0041,3.38e-4 -0.0013,0 -0.0027,-3.38e-4 -0.0039,-3.38e-4 v 3.38e-4 c -0.208418,0.0026 -0.416028,0.01621 -0.622885,0.05285 -0.174259,-0.413138 -0.374388,-0.835752 -0.593678,-1.226001 -0.548174,0.129227 -1.090426,0.30914 -1.598821,0.580494 0.01163,0.476039 0.04064,0.932158 0.09947,1.395469 -0.197436,0.134136 -0.404939,0.249264 -0.58935,0.406288 -0.187372,0.152858 -0.378726,0.299094 -0.548388,0.477866 -0.338949,-0.237734 -0.697705,-0.461142 -1.06728,-0.65835 -0.398373,0.454635 -0.770855,0.945344 -1.075138,1.4944435 0.239134,0.398052 0.495636,0.79813 0.733176,1.11013 z"
     fill="#478cbf"
     id="path371"
     style="stroke-width:0.0554295" />
  <path
     d="m 15.593551,15.413332 -0.06034,0.91686 c -0.0073,0.110505 -0.09016,0.198466 -0.194369,0.206399 l -2.075296,0.157023 c -0.0051,5.22e-4 -0.01012,5.22e-4 -0.01513,5.22e-4 -0.103133,0 -0.192108,-0.08025 -0.207342,-0.190071 l -0.11901,-0.855844 h -1.69334 l -0.119011,0.855844 c -0.01599,0.115184 -0.11309,0.198006 -0.222467,0.1895 L 8.81195,16.536591 c -0.104208,-0.0079 -0.187102,-0.09589 -0.194368,-0.206399 l -0.06034,-0.91686 -1.751904,-0.179115 c 8e-4,0.199664 0.0033,0.41839 0.0033,0.461941 0,1.962037 2.347122,2.905097 5.263248,2.915942 h 0.0035 0.0036 c 2.916125,-0.01085 5.262438,-0.953905 5.262438,-2.915942 0,-0.04435 0.0025,-0.262165 0.0034,-0.461941 z"
     fill="#478cbf"
     id="path373"
     style="stroke-width:0.0554295" />
  <path
     d="m 10.487644,12.786439 c 0,0.687916 -0.52562,1.245178 -1.174126,1.245178 -0.648182,0 -1.173964,-0.557262 -1.173964,-1.245178 0,-0.68746 0.525782,-1.244438 1.173964,-1.244438 0.648506,0 1.174126,0.556978 1.174126,1.244438"
     fill="#ffffff"
     id="path375"
     style="stroke-width:0.0554295" />
  <path
     d="m 10.205127,12.860288 c 0,0.456291 -0.348744,0.826107 -0.779359,0.826107 -0.4304,0 -0.77936,-0.369816 -0.77936,-0.826107 0,-0.456289 0.34896,-0.826446 0.77936,-0.826446 0.430615,0 0.779359,0.370157 0.779359,0.826446"
     fill="#414042"
     id="path377"
     style="stroke-width:0.0554295" />
  <path
     d="m 12.075298,14.144897 c -0.20874,0 -0.377918,-0.163132 -0.377918,-0.364221 v -1.146205 c 0,-0.200918 0.169178,-0.364221 0.377918,-0.364221 0.208741,0 0.378296,0.163303 0.378296,0.364221 v 1.146205 c 0,0.201089 -0.169555,0.364221 -0.378296,0.364221"
     fill="#ffffff"
     id="path379"
     style="stroke-width:0.0554295" />
  <path
     d="m 13.663148,12.786439 c 0,0.687916 0.52562,1.245178 1.174234,1.245178 0.64813,0 1.173856,-0.557262 1.173856,-1.245178 0,-0.68746 -0.525726,-1.244438 -1.173856,-1.244438 -0.648614,0 -1.174234,0.556978 -1.174234,1.244438"
     fill="#ffffff"
     id="path381"
     style="stroke-width:0.0554295" />
  <path
     d="m 13.945737,12.860288 c 0,0.456291 0.348637,0.826107 0.778929,0.826107 0.430722,0 0.779359,-0.369816 0.779359,-0.826107 0,-0.456289 -0.348637,-0.826446 -0.779359,-0.826446 -0.430292,0 -0.778929,0.370157 -0.778929,0.826446"
     fill="#414042"
     id="path383"
     style="stroke-width:0.0554295" />
</svg>
